<svg width="212" height="190" viewBox="0 0 212 190" fill="none" xmlns="http://www.w3.org/2000/svg">
<circle cx="106" cy="81" r="46" fill="#FFB330" stroke="#FFE1AC" stroke-width="8"/>
<path d="M101.664 106V85.392L85.6 59.472H95.584L110.496 84.304V106H101.664ZM112.416 81.872C111.861 81.1467 111.264 80.144 110.624 78.864C109.984 77.5627 109.557 76.1653 109.344 74.672C109.131 73.1573 109.387 71.7173 110.112 70.352L116.128 59.472H125.984L112.416 81.872Z" fill="#694200"/>
<path d="M0 149.661H60.2574C65.9872 149.661 71.1304 146.036 73.0544 140.64C74.9761 135.255 73.2933 129.207 68.872 125.59C54.9255 114.178 47.11 97.2884 47.4257 79.2524C47.9616 48.9577 72.0247 23.7507 102.211 21.8638C118.62 20.842 134.172 26.4406 146.075 37.6241C157.993 48.821 164.557 63.9829 164.557 80.3152C164.557 97.908 156.741 114.41 143.115 125.59C138.692 129.215 137.012 135.267 138.936 140.651C140.86 146.04 146.003 149.661 151.728 149.661H211.974V127.92H170.671C180.748 114.271 186.298 97.6811 186.298 80.3152C186.298 58.2425 177.062 36.9064 160.96 21.779C144.636 6.44049 123.27 -1.24796 100.857 0.165258C59.44 2.753 26.4225 37.3244 25.6899 78.8703C25.374 96.8 30.9207 113.903 41.2845 127.92H0V149.661Z" fill="#1F2937"/>
<path d="M211.974 168.123H0V189.864H211.974V168.123Z" fill="#1F2937"/>
</svg>
